<?xml version="1.0" standalone="no"?>
<!DOCTYPE svg PUBLIC "-//W3C//DTD SVG 1.1//EN" "http://www.w3.org/Graphics/SVG/1.1/DTD/svg11.dtd" >
<svg xmlns="http://www.w3.org/2000/svg">
<metadata>
This is a custom SVG webfont generated by Font Squirrel.
Copyright   : Copyrighted c 1981 1997 by and the property of LinotypeHell AG andor its subsidiaries All Rights Reserved All Cyrillic characters designed by DoubleAlex Helvetica is a registered Trademark of LinotypeHell AG andor its subsidiaries
Foundry     : by and the property of LinotypeHell AG andor its subsidiaries
</metadata>
<defs>
<font id="HelveticaNeueCyrUltraLight" horiz-adv-x="1044" >
<font-face units-per-em="2048" ascent="1638" descent="-410" />
<missing-glyph horiz-adv-x="579" />
<glyph unicode=" "  horiz-adv-x="579" />
<glyph unicode="&#x09;" horiz-adv-x="579" />
<glyph unicode="&#xa0;" horiz-adv-x="579" />
<glyph unicode="!" horiz-adv-x="385" d="M172 0v201h43v-201h-43zM172 381v1106h43v-1106h-43z" />
<glyph unicode="&#x22;" horiz-adv-x="579" d="M150 1421h47l-7 -499h-34zM385 1421h45l-6 -499h-33z" />
<glyph unicode="#" horiz-adv-x="1161" d="M45 463v39h277l77 418h-270v36h279l86 465h36l-88 -465h365l88 465h35l-86 -465h270v-36h-276l-78 -418h270v-39h-276l-88 -463h-37l88 463h-365l-84 -463h-39l86 463h-270zM358 502h365l78 418h-363z" />
<glyph unicode="$" horiz-adv-x="1161" d="M31 412v20h45q-27 -416 483 -428v709q-74 12 -124 24.5t-119.5 41t-110.5 64.5t-72 98.5t-31 139.5q0 166 125 266.5t332 102.5v160h41v-160q219 0 343 -101.5t124 -316.5v-2h-41q-2 190 -103.5 280.5t-322.5 98.5v-664q90 -14 148.5 -26t138.5 -42t126 -68t80.5 -102.5 t34.5 -150.5q0 -104 -45 -182t-119.5 -122t-162.5 -65.5t-187 -21.5h-14v-186h-41v188q-250 4 -389 105.5t-139 339.5zM145 1081q0 -84 30 -143t102.5 -94t109.5 -46.5t139 -35.5q23 -6 33 -8v655q-172 -4 -293 -81t-121 -247zM600 4h8q223 0 349 94.5t126 259.5 q0 53 -15 96.5t-33.5 73t-60.5 56t-71 41t-88 31t-88 23.5t-96 19l-31 7v-701z" />
<glyph unicode="%" horiz-adv-x="1429" d="M45 1122q0 160 87 255.5t233 95.5q150 0 236.5 -95.5t86.5 -257.5q0 -160 -89 -257t-237 -97q-147 0 -232 94t-85 262zM84 1118q0 -150 72.5 -230.5t205.5 -80.5q131 0 208 85t77 230t-73.5 227.5t-208.5 82.5q-131 0 -206 -84.5t-75 -229.5zM197 -61l974 1568h50 l-977 -1568h-47zM743 330q0 164 85 258t233.5 94t234.5 -93t86 -255q0 -164 -85 -259t-232 -95q-152 0 -237 93t-85 257zM782 326q0 -147 74 -229.5t207 -82.5q131 0 207 87t76 235q0 143 -76 225t-209 82t-206 -80.5t-73 -236.5z" />
<glyph unicode="&#x26;" horiz-adv-x="1198" d="M94 340q0 72 23.5 133.5t76 112.5t92.5 83.5t114.5 80t99.5 65.5q-16 18 -52 62.5t-49.5 60.5t-40 51t-36 53.5t-22.5 47t-17 53t-4 51.5q0 123 86 197.5t223 74.5q125 0 208 -75.5t83 -190.5q0 -39 -8.5 -76t-34 -71.5t-41 -57t-59.5 -58.5t-56 -46t-68.5 -48t-58.5 -40 l391 -490q45 102 57 258h37q0 -139 -67 -292l225 -279h-51l-191 238q-88 -133 -186 -200t-246 -67q-188 0 -308 104.5t-120 264.5zM133 340q0 -145 110.5 -240.5t278.5 -95.5q127 0 237.5 74t168.5 194l-408 508q-20 -14 -72.5 -46t-88 -55.5t-82 -62t-74 -75.5t-49 -90.5 t-21.5 -110.5zM315 1194q0 -35 8.5 -64.5t34 -69.5t43 -63.5t62.5 -80t67 -82.5q10 6 58.5 38.5t72 48t63.5 52.5t61.5 65.5t38 71.5t16.5 88q0 100 -73 166t-183 66q-119 0 -194 -67t-75 -169z" />
<glyph unicode="'" horiz-adv-x="348" d="M150 1421h47l-7 -499h-34z" />
<glyph unicode="(" horiz-adv-x="462" d="M141 571q0 233 66.5 480t179.5 452h43q-248 -426 -248 -944q0 -467 248 -934h-43q-246 461 -246 946z" />
<glyph unicode=")" horiz-adv-x="462" d="M33 -375q250 467 250 934q0 518 -250 944h45q113 -205 178.5 -451.5t65.5 -480.5q0 -485 -244 -946h-45z" />
<glyph unicode="*" horiz-adv-x="735" d="M66 1284l12 37l270 -88v289h37v-289l272 88l13 -37l-275 -90l172 -229l-30 -25l-168 231l-181 -225l-28 25l178 223z" />
<glyph unicode="+" horiz-adv-x="1253" d="M100 506v41h506v506h41v-506h506v-41h-506v-506h-41v506h-506z" />
<glyph unicode="," horiz-adv-x="579" d="M223 -195q47 68 47 172v228h41v-193q0 -104 -19.5 -165.5t-68.5 -102.5v61z" />
<glyph unicode="-" horiz-adv-x="694" d="M162 541v37h373v-37h-373z" />
<glyph unicode="." horiz-adv-x="579" d="M268 0v205h45v-205h-45z" />
<glyph unicode="/" horiz-adv-x="694" d="M-18 -35l694 1561h39l-690 -1561h-43z" />
<glyph unicode="0" horiz-adv-x="1161" d="M43 684q0 106 16.5 206.5t55.5 204t99 181.5t154.5 126t213.5 48q143 0 251.5 -66.5t168 -178t88 -234.5t28.5 -258q0 -106 -17.5 -208t-56 -201t-100 -173t-156 -119t-215.5 -45q-246 0 -388 190.5t-142 526.5zM84 682q0 -317 130 -497.5t359 -180.5q139 0 242 64.5 t157 172t78.5 225.5t24.5 245q0 98 -14 192t-50 186.5t-91.5 163t-141.5 112.5t-194 42q-139 0 -240.5 -67.5t-156 -180t-79 -231.5t-24.5 -246z" />
<glyph unicode="1" horiz-adv-x="1161" d="M244 1114v41q203 53 381 266h47v-1421h-41v1374q-154 -201 -387 -260z" />
<glyph unicode="2" horiz-adv-x="1161" d="M115 0q8 104 65.5 194.5t118.5 141.5t180 131l131 92q84 59 137.5 102.5t117 110t95 141t31.5 158.5q0 160 -102.5 249t-284.5 89q-414 0 -420 -457h-43v47q0 207 126 329t337 122q197 0 313.5 -102.5t116.5 -276.5q0 -90 -34.5 -170t-103.5 -152.5t-126 -118.5 t-145 -110l-121 -86q-172 -121 -228 -180q-96 -100 -112 -215h909v-39h-958z" />
<glyph unicode="3" horiz-adv-x="1161" d="M80 432q0 27 2 49h37v-45q0 -203 125 -316.5t342 -113.5q197 0 322.5 107.5t125.5 277.5q0 352 -487 352h-25v39q23 -2 60 -2q80 0 149.5 14.5t135 45t103.5 95t38 152.5q0 150 -110 238t-296 88q-217 0 -327.5 -113.5t-118.5 -324.5h-37q2 225 130 350t353 125 q201 0 324 -99.5t123 -263.5q0 -143 -95.5 -229t-230.5 -98q154 -16 252 -106.5t98 -256.5q0 -190 -135 -309t-352 -119q-233 0 -369.5 125t-136.5 338z" />
<glyph unicode="4" horiz-adv-x="1161" d="M72 373v49l702 1001h53v-1011h258v-39h-258v-373h-39v373h-716zM111 412h677v970z" />
<glyph unicode="5" horiz-adv-x="1161" d="M80 453h37q0 -201 118.5 -325t335.5 -124q197 0 325 130t128 329t-130 330t-327 131q-258 0 -393 -224h-49l151 721h730v-41h-699l-133 -622q141 201 393 200q213 0 354.5 -141t141.5 -354t-140.5 -353.5t-351.5 -140.5q-231 0 -361 131.5t-130 352.5z" />
<glyph unicode="6" horiz-adv-x="1161" d="M94 641q0 115 11.5 216t45 214t89 194t150.5 133t220 52q180 0 304 -102.5t149 -274.5h-41q-23 154 -134.5 247t-275.5 93q-113 0 -199.5 -46t-136 -114.5t-81 -170t-45 -187.5t-19.5 -193q-2 -31 -2 -120q47 166 171 264t300 98q205 0 346 -142.5t141 -348.5 q0 -205 -141 -345.5t-346 -140.5q-176 0 -307 102.5t-170 268.5q-29 135 -29 303zM147 457q0 -190 130.5 -321.5t322.5 -131.5q190 0 319.5 131t129.5 322q0 190 -131.5 321t-323.5 131q-186 0 -316.5 -132t-130.5 -320z" />
<glyph unicode="7" horiz-adv-x="1161" d="M127 1380v41h909v-51q-279 -266 -456 -630.5t-179 -739.5h-45q6 381 186.5 759t463.5 621h-879z" />
<glyph unicode="8" horiz-adv-x="1161" d="M70 391q0 164 98 259t262 120q-137 25 -218 108t-81 220q0 168 117 260t334 92t333.5 -91t116.5 -261q0 -135 -82 -219t-215 -109q354 -55 355 -377q0 -199 -133.5 -313.5t-366.5 -114.5q-225 0 -372.5 104.5t-147.5 321.5zM111 391q0 -184 124.5 -286.5t352.5 -102.5 q217 0 339 103.5t122 287.5q0 174 -121 266.5t-350 92.5q-225 0 -346 -94.5t-121 -266.5zM172 1100q0 -150 108.5 -231t305.5 -81q168 0 285.5 74t117.5 236q0 168 -113.5 241.5t-293.5 73.5q-197 0 -303.5 -80.5t-106.5 -232.5z" />
<glyph unicode="9" horiz-adv-x="1161" d="M72 958.5q0 206.5 140 349t345 142.5q125 0 231.5 -53.5t169.5 -147.5q115 -162 115 -493q0 -250 -37 -387q-53 -195 -175 -299.5t-299 -104.5t-300 100.5t-147 266.5h39q31 -150 141.5 -239t263.5 -89q256 0 379 221q45 82 68.5 207t26.5 204t3 224 q-35 -166 -159.5 -275.5t-313.5 -109.5q-211 0 -351 138.5t-140 345zM111 958.5q0 -190.5 131 -319.5t320.5 -129t320.5 130t131 323q0 186 -133 318t-324 132q-186 0 -316 -132t-130 -322.5z" />
<glyph unicode=":" horiz-adv-x="579" d="M268 0v205h43v-205h-43zM268 819v203h43v-203h-43z" />
<glyph unicode=";" horiz-adv-x="579" d="M223 -195q47 68 47 172v228h41v-193q0 -104 -19.5 -165.5t-68.5 -102.5v61zM268 819v203h43v-203h-43z" />
<glyph unicode="&#x3c;" horiz-adv-x="1253" d="M123 510v39l1007 432v-39l-962 -412l962 -407v-39z" />
<glyph unicode="=" horiz-adv-x="1253" d="M106 307v39h1041v-39h-1041zM106 711v39h1041v-39h-1041z" />
<glyph unicode="&#x3e;" horiz-adv-x="1253" d="M123 84v39l962 407l-962 412v39l1007 -432v-39z" />
<glyph unicode="?" d="M78 1028q0 219 112.5 355.5t333.5 136.5q184 0 302 -101.5t118 -261.5q0 -39 -6 -74.5t-24.5 -70.5t-32 -57.5t-45 -58.5t-46 -49t-55.5 -52t-51 -50q-104 -98 -126.5 -158.5t-22.5 -205.5h-41v27q0 150 32.5 214t147.5 169q72 63 111.5 105t79.5 114.5t40 146.5 q0 152 -112.5 238t-270.5 86q-397 0 -405 -453h-39zM494 0v203h41v-203h-41z" />
<glyph unicode="@" horiz-adv-x="1671" d="M55 713q0 348 250 572t610 224q293 0 494 -163.5t201 -444.5q0 -125 -46 -245.5t-145.5 -209t-226.5 -88.5q-61 0 -104.5 36t-43.5 98q0 27 25 112q-55 -115 -132 -180.5t-194 -65.5q-129 0 -202.5 88.5t-73.5 217.5q0 180 119 337.5t291 157.5q125 0 194.5 -74.5 t69.5 -195.5v-15l80 261h41l-125 -402q-57 -195 -57.5 -243t34.5 -71.5t84 -23.5q113 0 200 85t130 200t43 221q0 264 -191.5 419t-466.5 155q-340 0 -580.5 -216.5t-240.5 -545.5q0 -319 229.5 -512t548.5 -193q178 0 321.5 51.5t297.5 157.5l22 -31q-160 -111 -307 -162 t-334 -51q-346 0 -580.5 203t-234.5 537zM508 666q0 -117 63.5 -193t176.5 -76q127 0 215 103.5t129 242.5q23 70 22 127q0 111 -63.5 182.5t-173.5 71.5q-154 0 -261.5 -148t-107.5 -310z" />
<glyph unicode="A" horiz-adv-x="1200" d="M-25 0l613 1487h39l598 -1487h-49l-197 492h-756l-200 -492h-48zM238 530h727l-359 912z" />
<glyph unicode="B" horiz-adv-x="1275" d="M115 0v1487h596q199 0 331 -88t132 -279q0 -139 -88.5 -234t-231.5 -114q152 -12 259.5 -106.5t107.5 -262.5q0 -172 -118 -276t-290 -119q-100 -8 -168 -8h-530zM156 39h526q96 0 179 17.5t156 56.5t116 114.5t43 180.5q0 184 -132.5 263t-330.5 79h-557v-711zM156 791 h467q203 0 282 24q25 8 47 19q178 86 178 284q0 123 -66.5 200t-159.5 104.5t-216 27.5h-532v-659z" />
<glyph unicode="C" horiz-adv-x="1429" d="M66 741q0 348 189 565.5t497 217.5q231 0 405 -138.5t201 -345.5h-39q-41 205 -201 324t-373 119q-285 0 -462 -206t-177 -536q0 -199 68 -361.5t216.5 -268t350.5 -105.5q254 0 417 163t190 417h38q-20 -272 -201 -445.5t-444 -173.5q-319 0 -497 224t-178 550z" />
<glyph unicode="D" horiz-adv-x="1351" d="M119 0v1487h499q315 0 485.5 -198.5t170.5 -530.5q0 -346 -174 -552t-504 -206h-477zM162 39h407q342 0 502 190.5t160 528.5q0 328 -160 509t-463 181h-446v-1409z" />
<glyph unicode="E" horiz-adv-x="1120" d="M113 0v1487h989v-39h-948v-651h893v-41h-893v-717h958v-39h-999z" />
<glyph unicode="F" horiz-adv-x="1003" d="M113 0v1487h917v-39h-876v-655h792v-39h-792v-754h-41z" />
<glyph unicode="G" horiz-adv-x="1507" d="M66 725q0 354 191.5 575.5t500.5 221.5q229 0 404 -138.5t216 -357.5h-39q-45 203 -207.5 329t-373.5 126q-295 0 -473.5 -208t-178.5 -550q0 -305 176.5 -511t477.5 -206q272 0 441 171t169 446v39h-582v38h615l2 -700h-37v315l8 123q-49 -215 -210.5 -342t-401.5 -127 q-313 0 -505.5 209t-192.5 547z" />
<glyph unicode="H" horiz-adv-x="1351" d="M113 0v1487h43v-690h1040v690h45v-1487h-45v756h-1040v-756h-43z" />
<glyph unicode="I" horiz-adv-x="266" d="M113 0v1487h41v-1487h-41z" />
<glyph unicode="J" horiz-adv-x="966" d="M45 412q0 25 2 49h39l-2 -72v-16q0 -367 367 -367q358 0 358 373v1108h43v-1116q0 -195 -101.5 -298.5t-299.5 -103.5q-221 0 -313.5 111t-92.5 332z" />
<glyph unicode="K" horiz-adv-x="1236" d="M113 0v1487h41v-905l1032 905h61l-721 -627l768 -860h-53l-745 831l-342 -301v-530h-41z" />
<glyph unicode="L" horiz-adv-x="1003" d="M123 0v1487h45v-1448h872v-39h-917z" />
<glyph unicode="M" horiz-adv-x="1628" d="M113 0v1487h63l639 -1442l643 1442h58v-1487h-43v1315q0 20 2 61t2 62q-422 -958 -635 -1438h-51l-637 1438q0 -20 1 -62.5t1 -62.5v-1313h-43z" />
<glyph unicode="N" horiz-adv-x="1351" d="M113 0v1487h57l1030 -1438q-4 145 -4 184v1254h45v-1487h-51l-1038 1446q4 -78 4 -111v-1335h-43z" />
<glyph unicode="O" horiz-adv-x="1505" d="M59 743q0 344 191.5 563.5t494.5 219.5q311 0 507 -222.5t196 -572.5q0 -340 -194.5 -553t-505.5 -213q-307 0 -498 216t-191 562zM104 748q0 -330 178.5 -537t462.5 -207q293 0 474.5 203t181.5 526q0 332 -181.5 542t-469.5 210q-285 0 -465.5 -206.5t-180.5 -530.5z " />
<glyph unicode="P" horiz-adv-x="1198" d="M123 0v1487h627q190 0 310 -100.5t120 -303.5q0 -182 -121 -292.5t-324 -110.5h-569v-680h-43zM166 719h559q180 0 296 92t116 270q0 367 -416 367h-555v-729z" />
<glyph unicode="Q" horiz-adv-x="1505" d="M61 725q0 352 192.5 572.5t504.5 220.5q317 0 502.5 -224.5t185.5 -550.5q0 -356 -221 -591l243 -168l-22 -29l-250 172q-184 -162 -438 -162q-317 0 -507 218t-190 542zM104 727q0 -309 173.5 -516t480.5 -207q117 0 209 34t194 112l-260 180l23 30l266 -182 q211 238 211 565q0 199 -70.5 362t-220 267.5t-352.5 104.5q-293 0 -473.5 -207t-180.5 -543z" />
<glyph unicode="R" horiz-adv-x="1275" d="M119 0v1487h590q215 0 347 -90t132 -299q0 -160 -94.5 -258.5t-251.5 -116.5q268 -31 307 -229q12 -57 18 -252q4 -195 33 -242h-43q-12 4 -19.5 77t-13.5 194.5t-6 127.5q-6 82 -32.5 138.5t-63.5 87t-98.5 49t-117.5 22.5t-144 4h-498v-700h-45zM164 739h487 q496 0 496 359q0 102 -37 175t-104.5 110.5t-142.5 52t-171 14.5h-528v-711z" />
<glyph unicode="S" horiz-adv-x="1275" d="M84 465v29h41v-7q0 -233 136 -357t388 -124q236 0 369 99.5t133 277.5q0 49 -13.5 92t-32 74t-53 56.5t-62 39.5t-78 31.5t-78 24t-84 18.5t-80.5 18q-16 4 -69.5 15.5t-76 17.5t-72 20.5t-75 24.5t-65.5 28.5t-62.5 38t-49 47t-41 58.5t-24.5 69t-10 85q0 176 132 277.5 t359 101.5q242 0 390.5 -112t156.5 -339h-43q-14 408 -502 408q-211 0 -329.5 -90.5t-118.5 -249.5q0 -53 15.5 -96.5t36 -74t60.5 -58t71.5 -43t86 -32t85 -23.5t90 -19.5t83.5 -18.5q221 -49 287 -78q207 -88 207 -311q0 -193 -143.5 -302.5t-396.5 -109.5t-410.5 124 t-157.5 370z" />
<glyph unicode="T" d="M-39 1448v39h1122v-39h-540v-1448h-41v1448h-541z" />
<glyph unicode="U" horiz-adv-x="1318" d="M106 561v926h41v-930q0 -264 129.5 -407.5t393.5 -143.5q258 0 378.5 148.5t120.5 406.5v926h45v-932q0 -272 -136 -429t-408 -157q-285 0 -424.5 156.5t-139.5 435.5z" />
<glyph unicode="V" horiz-adv-x="1122" d="M-41 1487h45l563 -1446l555 1446h41l-567 -1487h-55z" />
<glyph unicode="W" horiz-adv-x="1816" d="M-29 1487h49l431 -1438l426 1438h65l436 -1438l424 1438h43l-438 -1487h-55l-443 1450l-430 -1450h-55z" />
<glyph unicode="X" horiz-adv-x="1085" d="M-61 0l575 762l-543 725h52l518 -688l528 688h49l-547 -725l574 -762h-53l-551 729l-549 -729h-53z" />
<glyph unicode="Y" horiz-adv-x="1122" d="M-68 1487h52l575 -821l584 821h47l-608 -860v-627h-43v627z" />
<glyph unicode="Z" d="M-29 0v57l1047 1391h-991v39h1030v-53l-1047 -1395h1063v-39h-1102z" />
<glyph unicode="[" horiz-adv-x="462" d="M199 -375v1880h237v-37h-198v-1804h198v-39h-237z" />
<glyph unicode="\" horiz-adv-x="694" d="M-18 1526h36l697 -1561h-45z" />
<glyph unicode="]" horiz-adv-x="462" d="M27 -336h200v1806h-200v37h241v-1880h-241v37z" />
<glyph unicode="^" horiz-adv-x="1253" d="M264 569l338 852h51l338 -852h-41l-323 820l-322 -820h-41z" />
<glyph unicode="_" d="M0 -156h1044v-106h-1044v106z" />
<glyph unicode="`" horiz-adv-x="270" d="M-92 1542h57l283 -293h-51z" />
<glyph unicode="a" horiz-adv-x="1003" d="M53 268q0 293 422 324q43 4 102.5 7t85 5t55.5 5t46 8.5t31 13.5q43 27 43 133q0 295 -330 295q-322 0 -352 -318h-39q14 174 115.5 265.5t279.5 91.5q164 0 264.5 -75t100.5 -230v-648q0 -55 16 -82.5t63 -27.5q27 0 62 10v-37q-33 -8 -68 -8q-33 0 -55.5 9t-33.5 20.5 t-16 40t-6 45t-1 57.5q0 23 2 94q-117 -295 -430 -295q-170 0 -263.5 78t-93.5 219zM94 264q0 -123 84 -190.5t234 -67.5q176 0 284 105q141 135 142 315v203q-14 -20 -38 -33.5t-63 -22t-69.5 -11.5t-99 -6t-111.5 -7q-78 -6 -134.5 -19.5t-113.5 -43t-86 -86t-29 -136.5z " />
<glyph unicode="b" horiz-adv-x="1120" d="M117 0v1487h43v-723q43 158 151.5 248t276.5 90q213 0 338 -152.5t125 -414.5q0 -264 -124 -417t-339 -153q-330 0 -428 336v-301h-43zM160 537q0 -242 117.5 -389.5t310.5 -147.5t306.5 143.5t113.5 386.5q0 250 -114 390.5t-314 140.5q-188 0 -304 -144t-116 -380z" />
<glyph unicode="c" d="M72 530q0 256 132 410t351 154q176 0 287.5 -93.5t132.5 -257.5h-41q-16 139 -117.5 226.5t-259.5 87.5q-203 0 -323.5 -143.5t-120.5 -385.5q0 -236 118.5 -381t311.5 -145q166 0 272.5 97.5t126.5 265.5h43q-25 -184 -140.5 -291t-297.5 -107q-213 0 -344 155.5 t-131 407.5z" />
<glyph unicode="d" horiz-adv-x="1120" d="M66 518q0 264 126.5 423t342.5 159q315 0 423 -326v713h43v-1487h-43v305q-35 -158 -148.5 -249t-281.5 -91q-215 0 -338.5 148.5t-123.5 404.5zM109 520q0 -242 111.5 -381t307.5 -139q199 0 314.5 143.5t115.5 386.5q0 221 -107.5 376t-320.5 155q-195 0 -308 -146.5 t-113 -394.5z" />
<glyph unicode="e" d="M57 522q0 254 131 412t347 158q217 0 336.5 -156t119.5 -365v-41h-891q0 -219 108.5 -373.5t323.5 -154.5q168 0 279 108.5t127 262.5h43q-25 -180 -143.5 -294t-305.5 -114q-215 0 -345 152.5t-130 404.5zM100 569h850q0 197 -107.5 340.5t-307.5 143.5 q-195 0 -312 -141.5t-123 -342.5z" />
<glyph unicode="f" horiz-adv-x="425" d="M-2 1028v41h186v125q0 74 7.5 121t29 92t68.5 65.5t121 20.5q25 0 77 -6v-39q-47 4 -81 4q-31 0 -57.5 -5t-45 -18.5t-33 -23.5t-22.5 -37t-13.5 -37t-7.5 -46t-2 -45v-51v-46v-74h232v-41h-232v-1028h-41v1028h-186z" />
<glyph unicode="g" horiz-adv-x="1083" d="M63 565q0 242 125 387.5t334 145.5q152 0 261.5 -88t150.5 -230v289h39v-997q0 -236 -109.5 -350.5t-339.5 -114.5q-188 0 -292.5 86t-112.5 248h43q20 -293 364 -293q227 0 317.5 110.5t90.5 339.5v264q-45 -141 -155.5 -222t-270.5 -81q-205 0 -325 136.5t-120 369.5z M104 571q0 -217 110 -346t296 -129q199 0 310.5 138.5t111.5 345.5q0 215 -113.5 346t-300 131t-300.5 -132.5t-114 -353.5z" />
<glyph unicode="h" d="M113 0v1487h43v-690q115 297 393 297q186 0 287.5 -115t101.5 -297v-682h-41v672q0 172 -88 279.5t-260 107.5q-133 0 -225.5 -76t-130 -184.5t-37.5 -239.5v-559h-43z" />
<glyph unicode="i" horiz-adv-x="270" d="M113 0v1069h43v-1069h-43zM113 1274v213h43v-213h-43z" />
<glyph unicode="j" horiz-adv-x="270" d="M-104 -334h16q111 0 159 32t48 140v1231h45v-1221q0 -129 -52.5 -175t-181.5 -46h-34v39zM119 1274v213h45v-213h-45z" />
<glyph unicode="k" horiz-adv-x="925" d="M117 0v1487h43v-1030l741 612h62l-496 -405l530 -664h-55l-506 633l-276 -227v-406h-43z" />
<glyph unicode="l" horiz-adv-x="270" d="M115 0v1487h41v-1487h-41z" />
<glyph unicode="m" horiz-adv-x="1624" d="M117 0v1069h43v-250q84 274 352 275q127 0 209 -65.5t110 -182.5q90 252 345 252q172 0 256 -98.5t84 -270.5v-729h-46v743q0 145 -73.5 228.5t-222.5 83.5q-150 0 -241 -98.5t-91 -258.5v-698h-41v725q0 150 -72 240t-223 90q-156 0 -251 -118t-95 -312v-625h-43z" />
<glyph unicode="n" d="M113 0v1069h41v-268q41 131 148.5 212t248.5 81q188 0 288.5 -105.5t100.5 -281.5v-707h-43v692q0 162 -83 262.5t-259 100.5q-203 0 -301 -137.5t-98 -323.5v-594h-43z" />
<glyph unicode="o" horiz-adv-x="1083" d="M61 532q0 256 133.5 411t352.5 155q217 0 347 -156t130 -418q0 -254 -131 -404.5t-352 -150.5q-219 0 -349.5 153.5t-130.5 409.5zM102 535q0 -240 120 -383.5t321 -143.5q199 0 317.5 140.5t118.5 375.5q0 242 -118 387.5t-316.5 145.5t-320.5 -144.5t-122 -377.5z" />
<glyph unicode="p" horiz-adv-x="1120" d="M127 -373v1442h41v-299q109 332 420 332q211 0 337 -154.5t126 -417.5q0 -254 -127 -409.5t-338 -155.5q-164 0 -271.5 86t-146.5 238l2 -121v-541h-43zM168 524q0 -219 104.5 -370.5t315.5 -151.5q190 0 306 143.5t116 386.5q0 246 -114 387.5t-308 141.5 q-201 0 -310.5 -140.5t-109.5 -396.5z" />
<glyph unicode="q" horiz-adv-x="1120" d="M66 526q0 260 128 417t341 157q160 0 267 -90t148 -242v301h39v-1442h-41v518l2 142q-109 -319 -420 -320q-213 0 -338.5 151.5t-125.5 407.5zM109 524q0 -242 112.5 -382t307 -140t309 140.5t114.5 375.5q0 84 -13 159t-45 146.5t-79 122.5t-118.5 82t-164.5 31 q-199 0 -311 -143.5t-112 -391.5z" />
<glyph unicode="r" horiz-adv-x="540" d="M123 0v1069h43v-303q49 158 148.5 229.5t275.5 75.5v-41q-160 -4 -255 -71.5t-142 -217.5q-27 -84 -27 -252v-489h-43z" />
<glyph unicode="s" horiz-adv-x="966" d="M68 365h43q0 -354 378 -355q156 0 255.5 73t99.5 189q0 80 -61.5 136.5t-110.5 73t-154 40.5q-14 4 -22 6q-4 0 -49.5 10.5t-54.5 13.5t-50 15.5t-53.5 18.5t-46 20.5t-46 26.5t-35 32.5t-31.5 41t-16.5 48t-7.5 60.5q0 131 98.5 205t272.5 74q178 0 279.5 -87 t101.5 -253h-43q0 301 -350 301q-145 0 -230 -63.5t-85 -172.5q0 -31 7 -57.5t23.5 -47t29.5 -36.5t42 -31l45 -22q16 -8 53 -18.5t51.5 -13.5t55.5 -13l49 -13q193 -45 258 -84q121 -74 121 -211t-110.5 -221t-287.5 -84q-203 0 -311 104t-108 294z" />
<glyph unicode="t" horiz-adv-x="501" d="M-6 1030v39h201v336h43v-336h237v-39h-237v-774q0 -49 1 -67.5t7 -55.5t21.5 -52t45 -29.5t74.5 -14.5q35 0 88 8v-41q-53 -8 -86 -8q-70 0 -111.5 18.5t-58 61.5t-20.5 80t-4 106v768h-201z" />
<glyph unicode="u" d="M109 383v686h43v-643q0 -106 8 -155.5t35 -98.5q39 -78 120.5 -123t182.5 -45q178 0 279.5 135t101.5 318v612h45v-1069h-43v252q-111 -285 -385 -285q-184 0 -285.5 114t-101.5 302z" />
<glyph unicode="v" horiz-adv-x="849" d="M-31 1069h45l430 -1028l396 1028h43l-408 -1069h-57z" />
<glyph unicode="w" horiz-adv-x="1429" d="M-27 1069h43l332 -1026l336 1026h64l329 -1022l332 1022h45l-350 -1069h-55l-334 1028l-336 -1028h-60z" />
<glyph unicode="x" horiz-adv-x="849" d="M-31 0l430 555l-397 514h57l367 -481l371 481h49l-393 -514l430 -555h-54l-405 524l-406 -524h-49z" />
<glyph unicode="y" horiz-adv-x="849" d="M-35 1069h45l426 -1012l387 1012h41l-473 -1245q-43 -111 -98 -150t-176 -39h-31v39q12 -2 25 -2q90 0 142 23.5t81 101.5q39 86 80 213z" />
<glyph unicode="z" horiz-adv-x="849" d="M6 0v55l760 975h-700v39h743v-47l-766 -983h801v-39h-838z" />
<glyph unicode="{" horiz-adv-x="694" d="M43 543v45q178 25 239.5 85t61.5 232v127q0 86 2 130t12.5 107.5t31 95.5t57 66.5t96 51t141.5 20.5v-35q-66 -4 -114 -18t-80.5 -32.5t-54 -55.5t-32 -63.5t-15.5 -83t-6 -87t-1 -102.5v-39v-84q0 -160 -55.5 -238.5t-212.5 -97.5v-6q158 -16 213 -95t55 -239v-86 q0 -223 18 -291q37 -147 203 -178q37 -8 82 -10v-37q-82 4 -141.5 21.5t-96 51.5t-57 66.5t-31 96t-12.5 107.5t-2 130v127q0 172 -61.5 232.5t-239.5 85.5z" />
<glyph unicode="|" horiz-adv-x="462" d="M213 -446v2088h37v-2088h-37z" />
<glyph unicode="}" horiz-adv-x="694" d="M12 -338q51 2 91 12.5t70 21.5t52.5 35.5t39 42t25.5 54.5t14 58.5t8 69.5t3 73v80v32v86q0 160 55.5 239t213.5 95v6q-158 18 -213.5 97t-55.5 239v84q0 225 -18 295q-43 150 -215 178q-33 6 -70 8v35q82 -4 141.5 -20.5t96.5 -51t57.5 -66.5t29.5 -95.5t11 -107.5 t2 -130v-127q0 -174 61.5 -233.5t239.5 -83.5v-45q-178 -25 -239.5 -84.5t-61.5 -233.5v-127q0 -86 -2 -130t-11 -107.5t-29.5 -96t-57.5 -66.5t-96.5 -51.5t-141.5 -21.5v37z" />
<glyph unicode="~" horiz-adv-x="1253" d="M96 410q31 96 92.5 153.5t143.5 57.5q31 0 78 -10.5t82.5 -21.5t87 -30.5t69.5 -26.5q207 -74 271 -73q70 0 122 50t78 124h37q-27 -90 -88 -150.5t-149 -60.5q-59 0 -291 76q-8 2 -56.5 20.5t-81 29.5t-79.5 23.5t-80 12.5q-66 0 -119 -52.5t-80 -121.5h-37z" />
<glyph unicode="&#xa3;" horiz-adv-x="1161" d="M86 6q106 84 176 194.5t70 231.5q0 123 -64 248h-164v33h144q-6 10 -28.5 49t-31 54t-28 49t-27.5 55.5t-18.5 53.5t-14.5 59.5t-4 56.5q0 164 130 264t345 100q477 0 478 -496h-37q-4 231 -111.5 344t-331.5 113q-197 0 -315.5 -90t-118.5 -242q0 -45 18.5 -99t37 -91 t53.5 -96.5t49 -83.5h332v-33h-312q59 -135 60 -248q0 -117 -54.5 -209t-154.5 -192q121 72 221 71q61 0 174 -41q164 -63 223 -63q78 0 166 47t160 125l27 -31q-178 -176 -349 -176q-74 0 -182 41q-164 61 -231 62q-117 0 -254 -101z" />
<glyph unicode="&#xa9;" horiz-adv-x="1671" d="M72 762q0 313 223 538.5t540.5 225.5t539.5 -225.5t222 -538.5q0 -322 -225 -543t-544.5 -221t-537.5 224.5t-218 539.5zM111 762q0 -303 209.5 -514t511 -211t514.5 210t213 515q0 301 -213 513t-510 212q-301 0 -513 -213t-212 -512zM453 770q0 182 108.5 312 t282.5 130q129 0 229.5 -79.5t112.5 -204.5h-37q-20 115 -103 180.5t-200 65.5q-160 0 -257 -118t-97 -282q0 -168 102 -290t264 -122q109 0 192 60.5t109 163.5h35q-20 -121 -116.5 -190.5t-217.5 -69.5q-184 0 -295.5 131t-111.5 313z" />
<glyph unicode="&#xab;" horiz-adv-x="735" d="M147 539v45l205 280v-61l-164 -244l164 -227v-64zM352 539v39l209 290v-61l-170 -248l170 -229v-66z" />
<glyph unicode="&#xad;" horiz-adv-x="694" d="M162 541v37h373v-37h-373z" />
<glyph unicode="&#xae;" horiz-adv-x="835" d="M33 1143q0 156 111.5 269.5t273.5 113.5q160 0 271.5 -114t111.5 -269q0 -162 -114 -273.5t-269 -111.5q-160 0 -272.5 111.5t-112.5 273.5zM68 1143q0 -145 103 -247.5t247 -102.5q145 0 247.5 103t102.5 246.5t-103.5 247t-246.5 103.5q-145 0 -247.5 -103.5 t-102.5 -246.5zM279 932v426h141q168 0 168 -117q0 -37 -20.5 -67.5t-55.5 -38.5q70 -31 70 -144q0 -41 14 -59h-39q-8 14 -8 82q-2 59 -37 81.5t-102 22.5h-99v-186h-32zM311 1151h111q131 0 131 88q0 31 -11.5 50.5t-34 25.5t-40.5 8t-49 2h-107v-174z" />
<glyph unicode="&#xb0;" horiz-adv-x="835" d="M135 1167.5q0 116.5 84 199.5t199 83q117 0 199.5 -83t82.5 -199.5t-82.5 -199.5t-199.5 -83t-200 83t-83 199.5zM174 1167q0 -102 71.5 -172.5t172.5 -70.5q102 0 173 71.5t71 171.5q0 102 -72 174t-172 72q-102 0 -173 -73t-71 -173z" />
<glyph unicode="&#xbb;" horiz-adv-x="735" d="M176 264v60l172 245l-172 234v61l209 -274v-39zM385 268v62l166 241l-166 224v67l203 -272v-41z" />
<glyph unicode="&#x2c6;" horiz-adv-x="1253" d="M264 569l338 852h51l338 -852h-41l-323 820l-322 -820h-41z" />
<glyph unicode="&#x2da;" horiz-adv-x="579" d="M-283 407.5q0 116.5 84 199.5t199 83q117 0 199.5 -83t82.5 -199.5t-82.5 -199.5t-199.5 -83t-200 83t-83 199.5zM-244 407q0 -102 71.5 -172.5t172.5 -70.5q102 0 173 71.5t71 171.5q0 102 -72 174t-172 72q-102 0 -173 -73t-71 -173z" />
<glyph unicode="&#x2dc;" horiz-adv-x="579" d="M-531 125q31 96 92.5 153.5t143.5 57.5q31 0 78 -10.5t82.5 -21.5t87 -30.5t69.5 -26.5q207 -74 271 -73q70 0 122 50t78 124h37q-27 -90 -88 -150.5t-149 -60.5q-59 0 -291 76q-8 2 -56.5 20.5t-81 29.5t-79.5 23.5t-80 12.5q-66 0 -119 -52.5t-80 -121.5h-37z" />
<glyph unicode="&#x400;" horiz-adv-x="1120" d="M293 1943h57l283 -293h-51zM113 0v1487h989v-39h-948v-651h893v-41h-893v-717h958v-39h-999z" />
<glyph unicode="&#x401;" horiz-adv-x="1120" d="M113 0v1487h989v-39h-948v-651h893v-41h-893v-717h958v-39h-999zM385 1593v217h41v-217h-41zM733 1593v217h43v-217h-43z" />
<glyph unicode="&#x402;" horiz-adv-x="1429" d="M-23 1448v39h1115v-39h-598v-881h4q51 154 159.5 241t270.5 87q205 0 330.5 -153.5t125.5 -405.5t-127 -408.5t-333 -156.5v41q193 0 306 142t113 382q0 231 -113.5 373.5t-301.5 142.5q-195 0 -314.5 -146.5t-119.5 -379.5v-326h-43v1448h-474z" />
<glyph unicode="&#x403;" horiz-adv-x="966" d="M113 0v1487h874v-39h-833v-1448h-41zM414 1606l278 292h56l-287 -292h-47z" />
<glyph unicode="&#x404;" horiz-adv-x="1429" d="M57 741q0 348 189.5 565.5t496.5 217.5q221 0 392.5 -129t207.5 -324h-43q-47 190 -202.5 301t-360.5 111q-274 0 -448 -188.5t-191 -497.5h873v-41h-873v-15q0 -199 67.5 -361.5t216 -268t351.5 -105.5q229 0 385 136.5t207 353.5h41q-45 -238 -220 -383.5t-413 -145.5 q-319 0 -497.5 224t-178.5 550z" />
<glyph unicode="&#x405;" horiz-adv-x="1275" d="M84 465v29h41v-7q0 -233 136 -357t388 -124q236 0 369 99.5t133 277.5q0 49 -13.5 92t-32 74t-53 56.5t-62 39.5t-78 31.5t-78 24t-84 18.5t-80.5 18q-16 4 -69.5 15.5t-76 17.5t-72 20.5t-75 24.5t-65.5 28.5t-62.5 38t-49 47t-41 58.5t-24.5 69t-10 85q0 176 132 277.5 t359 101.5q242 0 390.5 -112t156.5 -339h-43q-14 408 -502 408q-211 0 -329.5 -90.5t-118.5 -249.5q0 -53 15.5 -96.5t36 -74t60.5 -58t71.5 -43t86 -32t85 -23.5t90 -19.5t83.5 -18.5q221 -49 287 -78q207 -88 207 -311q0 -193 -143.5 -302.5t-396.5 -109.5t-410.5 124 t-157.5 370z" />
<glyph unicode="&#x406;" horiz-adv-x="266" d="M113 0v1487h41v-1487h-41z" />
<glyph unicode="&#x407;" horiz-adv-x="266" d="M-63 1593v217h43v-217h-43zM113 0v1487h41v-1487h-41zM287 1593v217h43v-217h-43z" />
<glyph unicode="&#x408;" horiz-adv-x="966" d="M45 412q0 25 2 49h39l-2 -72q-8 -383 367 -383q358 0 358 373v1108h43v-1116q0 -195 -101.5 -298.5t-299.5 -103.5q-221 0 -313.5 111t-92.5 332z" />
<glyph unicode="&#x409;" horiz-adv-x="2056" d="M0 14v52q53 -37 143 -37q190 0 228 336q41 406 41 1032v90h704v-653h457q217 0 334.5 -108t117.5 -302q0 -193 -126.5 -308.5t-346.5 -115.5h-479v1448h-620v-119q0 -111 -11.5 -431t-31.5 -536q-6 -66 -21.5 -126t-44.5 -119.5t-80 -94t-119 -34.5q-100 -1 -145 26z M1116 39h455q186 0 298.5 107.5t112.5 279.5q0 176 -106.5 272.5t-304.5 96.5h-455v-756z" />
<glyph unicode="&#x40a;" horiz-adv-x="2056" d="M113 0v1487h41v-653h899v653h41v-653h479q217 0 334.5 -108t117.5 -302q0 -193 -126.5 -308.5t-346.5 -115.5h-499v795h-899v-795h-41zM1094 39h477q186 0 298.5 107.5t112.5 279.5q0 176 -106.5 272.5t-304.5 96.5h-477v-756z" />
<glyph unicode="&#x40b;" horiz-adv-x="1429" d="M-27 1448v39h1114v-39h-598v-739q53 68 168 130t220 62q131 0 220 -33.5t137 -82t73.5 -134.5t30.5 -153.5t5 -178.5v-319h-43v356q0 258 -86 380t-340 122q-102 0 -212.5 -65.5t-172.5 -141.5v-651h-43v1448h-473z" />
<glyph unicode="&#x40c;" horiz-adv-x="1236" d="M113 0v1487h41v-905l1032 905h61l-721 -627l768 -860h-53l-745 831l-342 -301v-530h-41zM487 1606l277 292h57l-286 -292h-48z" />
<glyph unicode="&#x40d;" horiz-adv-x="1351" d="M363 1943h57l283 -293h-51zM113 0v1487h41v-1452l1022 1452h65v-1487h-43v1452l-1020 -1452h-65z" />
<glyph unicode="&#x40e;" horiz-adv-x="1120" d="M-14 1487h45l530 -1114l533 1114h45l-631 -1323q-94 -199 -260 -199q-33 0 -88.5 15.5t-77.5 29.5v47q25 -18 81 -34.5t89 -16.5q135 0 223 184l62 129zM324 1810h41q37 -180 215 -180q188 0 217 180h41q-37 -223 -260 -223q-213 0 -254 223z" />
<glyph unicode="&#x40f;" horiz-adv-x="1351" d="M113 0v1487h41v-1448h1044v1448h43v-1487h-526v-371h-43v371h-559z" />
<glyph unicode="&#x410;" horiz-adv-x="1200" d="M-25 0l613 1487h39l598 -1487h-49l-197 492h-756l-200 -492h-48zM238 530h727l-359 912z" />
<glyph unicode="&#x411;" horiz-adv-x="1275" d="M119 0v1487h991v-39h-948v-614h602q217 0 336 -108t119 -302q0 -193 -128 -308.5t-348 -115.5h-624zM162 39h600q186 0 299 107.5t113 279.5q0 176 -106.5 272.5t-305.5 96.5h-600v-756z" />
<glyph unicode="&#x412;" horiz-adv-x="1275" d="M115 0v1487h596q199 0 331 -88t132 -279q0 -139 -88.5 -234t-231.5 -114q152 -12 259.5 -106.5t107.5 -262.5q0 -172 -118 -276t-290 -119q-100 -8 -168 -8h-530zM156 39h526q96 0 179 17.5t156 56.5t116 114.5t43 180.5q0 184 -132.5 263t-330.5 79h-557v-711zM156 791 h467q203 0 282 24q25 8 47 19q178 86 178 284q0 123 -66.5 200t-159.5 104.5t-216 27.5h-532v-659z" />
<glyph unicode="&#x413;" horiz-adv-x="966" d="M113 0v1487h874v-39h-833v-1448h-41z" />
<glyph unicode="&#x414;" horiz-adv-x="1351" d="M8 39h137q82 156 135.5 334t74 369.5t26.5 318.5t6 303v123h791v-1448h168v-412h-43v373h-1254v-373h-41v412zM197 39h940v1409h-709v-148q0 -823 -231 -1261z" />
<glyph unicode="&#x415;" horiz-adv-x="1120" d="M113 0v1487h989v-39h-948v-651h893v-41h-893v-717h958v-39h-999z" />
<glyph unicode="&#x416;" horiz-adv-x="2041" d="M-23 0l717 840l-635 647h58l884 -901v901h41v-901l883 901h60l-635 -647l716 -840h-57l-688 811l-279 -283v-528h-41v528l-278 283l-690 -811h-56z" />
<glyph unicode="&#x417;" horiz-adv-x="1275" d="M82 489v7h41v-7q0 -227 135 -355t377 -128q219 0 355 118t136 308q0 152 -109.5 242t-295.5 90h-209v43h209q176 0 277.5 85t101.5 238q0 164 -120 258.5t-329 94.5q-442 0 -483 -412h-43q47 455 526 455q223 0 357.5 -103.5t134.5 -292.5q0 -135 -76 -229t-227 -113v-6 q137 -6 233 -104t96 -246q0 -209 -150.5 -338t-383.5 -129q-256 0 -404.5 139t-148.5 385z" />
<glyph unicode="&#x418;" horiz-adv-x="1351" d="M113 0v1487h41v-1452l1022 1452h65v-1487h-43v1452l-1020 -1452h-65z" />
<glyph unicode="&#x419;" horiz-adv-x="1351" d="M113 0v1487h41v-1452l1022 1452h65v-1487h-43v1452l-1020 -1452h-65zM418 1810h41q37 -180 213 -180q188 0 219 180h41q-37 -223 -262 -223q-211 0 -252 223z" />
<glyph unicode="&#x41a;" horiz-adv-x="1236" d="M106 0v1487h41v-905l1033 905h61l-721 -627l768 -860h-53l-746 831l-342 -301v-530h-41z" />
<glyph unicode="&#x41b;" horiz-adv-x="1351" d="M20 14v52q53 -37 146 -37q188 0 225 336q41 406 41 1032v90h809v-1487h-43v1448h-723v-119q0 -111 -12 -431t-33 -536q-6 -66 -21.5 -126t-44 -119.5t-80 -94t-116.5 -34.5q-101 -1 -148 26z" />
<glyph unicode="&#x41c;" horiz-adv-x="1628" d="M113 0v1487h63l639 -1442l643 1442h58v-1487h-43v1315q0 20 2 61t2 62q-422 -958 -635 -1438h-51l-637 1438q0 -20 1 -62.5t1 -62.5v-1313h-43z" />
<glyph unicode="&#x41d;" horiz-adv-x="1351" d="M113 0v1487h43v-690h1040v690h45v-1487h-45v756h-1040v-756h-43z" />
<glyph unicode="&#x41e;" horiz-adv-x="1505" d="M59 743q0 344 191.5 563.5t494.5 219.5q311 0 507 -222.5t196 -572.5q0 -340 -194.5 -553t-505.5 -213q-307 0 -498 216t-191 562zM104 748q0 -330 178.5 -537t462.5 -207q293 0 474.5 203t181.5 526q0 332 -181.5 542t-469.5 210q-285 0 -465.5 -206.5t-180.5 -530.5z " />
<glyph unicode="&#x41f;" horiz-adv-x="1351" d="M113 0v1487h1128v-1487h-43v1448h-1044v-1448h-41z" />
<glyph unicode="&#x420;" horiz-adv-x="1198" d="M123 0v1487h627q190 0 310 -100.5t120 -303.5q0 -182 -121 -292.5t-324 -110.5h-569v-680h-43zM166 719h559q180 0 296 92t116 270q0 367 -416 367h-555v-729z" />
<glyph unicode="&#x421;" horiz-adv-x="1429" d="M66 741q0 348 189 565.5t497 217.5q231 0 405 -138.5t201 -345.5h-39q-41 205 -201 324t-373 119q-285 0 -462 -206t-177 -536q0 -199 68 -361.5t216.5 -268t350.5 -105.5q254 0 417 163t190 417h38q-20 -272 -201 -445.5t-444 -173.5q-319 0 -497 224t-178 550z" />
<glyph unicode="&#x422;" d="M-39 1448v39h1122v-39h-540v-1448h-41v1448h-541z" />
<glyph unicode="&#x423;" horiz-adv-x="1120" d="M-14 1487h45l530 -1114l533 1114h45l-631 -1323q-94 -199 -260 -199q-33 0 -88.5 15.5t-77.5 29.5v47q25 -18 81 -34.5t89 -16.5q135 0 223 184l62 129z" />
<glyph unicode="&#x424;" horiz-adv-x="1490" d="M59 752.5q0 279.5 189.5 426t476.5 146.5v162h41v-162q287 0 477.5 -146.5t190.5 -426t-190.5 -426t-477.5 -146.5v-180h-41v180q-287 0 -476.5 146.5t-189.5 426zM102 753q0 -261 174.5 -396.5t448.5 -135.5v1061q-274 0 -448.5 -134t-174.5 -395zM766 221 q274 0 448.5 135.5t174.5 396.5t-174.5 395t-448.5 134v-1061z" />
<glyph unicode="&#x425;" horiz-adv-x="1085" d="M-61 0l575 762l-543 725h52l518 -688l528 688h49l-547 -725l574 -762h-53l-551 729l-549 -729h-53z" />
<glyph unicode="&#x426;" horiz-adv-x="1392" d="M113 0v1487h41v-1448h1003v1448h41v-1448h168v-412h-41v373h-1212z" />
<glyph unicode="&#x427;" horiz-adv-x="1275" d="M98 1171v316h41v-311q0 -102 8.5 -171t36 -136.5t77.5 -106.5t137 -63.5t210 -24.5q223 0 514 127v686h41v-1487h-41v758q-100 -45 -245.5 -85t-260.5 -40q-139 0 -235 26.5t-151.5 66.5t-85 114.5t-38 146t-8.5 184.5z" />
<glyph unicode="&#x428;" horiz-adv-x="2062" d="M113 0v1487h41v-1448h858v1448h41v-1448h856v1448h43v-1487h-1839z" />
<glyph unicode="&#x429;" horiz-adv-x="2138" d="M113 0v1487h41v-1448h858v1448h41v-1448h856v1448h43v-1448h166v-412h-41v373h-1964z" />
<glyph unicode="&#x42a;" horiz-adv-x="1624" d="M-35 1448v39h615v-653h561q217 0 334.5 -108t117.5 -302q0 -193 -127 -308.5t-346 -115.5h-583v1448h-572zM580 39h559q186 0 298.5 107.5t112.5 279.5q0 176 -106.5 272.5t-304.5 96.5h-559v-756z" />
<glyph unicode="&#x42b;" horiz-adv-x="1624" d="M111 0v1487h41v-653h565q217 0 334.5 -108t117.5 -302q0 -193 -127 -308.5t-346 -115.5h-585zM152 39h563q186 0 298.5 107.5t112.5 279.5q0 176 -106.5 272.5t-304.5 96.5h-563v-756zM1470 0v1487h41v-1487h-41z" />
<glyph unicode="&#x42c;" horiz-adv-x="1200" d="M113 0v1487h41v-653h563q217 0 334.5 -108t117.5 -302q0 -193 -127 -308.5t-346 -115.5h-583zM154 39h561q186 0 298.5 107.5t112.5 279.5q0 176 -106.5 272.5t-304.5 96.5h-561v-756z" />
<glyph unicode="&#x42d;" horiz-adv-x="1429" d="M57 496h41q49 -217 205 -353.5t387 -136.5q203 0 350.5 105.5t216 268.5t68.5 361v15h-876v41h874q-14 309 -190.5 497.5t-446.5 188.5q-205 0 -360.5 -110.5t-206.5 -301.5h-41q39 195 209 324t393 129q305 0 495.5 -217t190.5 -566q0 -326 -178 -550t-498 -224 q-240 0 -414 145.5t-219 383.5z" />
<glyph unicode="&#x42e;" horiz-adv-x="1951" d="M113 0v1487h41v-690h354q14 326 203.5 527.5t480.5 201.5q311 0 506.5 -222.5t195.5 -572.5q0 -340 -194.5 -553t-505.5 -213q-305 0 -496.5 216t-191.5 562v13h-352v-756h-41zM551 748q0 -330 179 -537t462 -207q293 0 475 203t182 526q0 332 -182 542t-471 210 q-283 0 -464 -206.5t-181 -530.5z" />
<glyph unicode="&#x42f;" horiz-adv-x="1275" d="M-4 0l561 700q-209 2 -332 104.5t-123 297.5q0 385 455 385h610v-1487h-41v700h-514l-559 -700h-57zM145 1108q0 -174 112 -271.5t292 -97.5h577v709h-577q-404 0 -404 -340z" />
<glyph unicode="&#x430;" horiz-adv-x="1003" d="M53 268q0 293 422 324q43 4 102.5 7t85 5t55.5 5t46 8.5t31 13.5q43 27 43 133q0 295 -330 295q-322 0 -352 -318h-39q14 174 115.5 265.5t279.5 91.5q164 0 264.5 -75t100.5 -230v-648q0 -55 16 -82.5t63 -27.5q27 0 62 10v-37q-33 -8 -68 -8q-33 0 -55.5 9t-33.5 20.5 t-16 40t-6 45t-1 57.5q0 23 2 94q-117 -295 -430 -295q-170 0 -263.5 78t-93.5 219zM94 264q0 -123 84 -190.5t234 -67.5q176 0 284 105q141 135 142 315v203q-14 -20 -38 -33.5t-63 -22t-69.5 -11.5t-99 -6t-111.5 -7q-78 -6 -134.5 -19.5t-113.5 -43t-86 -86t-29 -136.5z " />
<glyph unicode="&#x431;" horiz-adv-x="1083" d="M76 590q0 393 127 602q119 190 327 217l218 31q131 18 145 86h41q-10 -61 -51 -89t-152 -42l-186 -25q-111 -16 -179.5 -60t-134.5 -141q-98 -150 -120 -440h4q59 178 180 258t256 80q209 0 342 -144.5t133 -385.5q0 -246 -134 -404t-343 -158q-168 0 -295 109t-166 309 q-12 70 -12 197zM117 547q0 -238 119.5 -384.5t314.5 -146.5q193 0 312.5 145.5t119.5 375.5q0 223 -119 356t-313 133q-180 0 -307 -133t-127 -346z" />
<glyph unicode="&#x432;" horiz-adv-x="1003" d="M115 0v1069h497q135 0 218 -69.5t83 -188.5q0 -102 -60 -167.5t-165 -78.5v-4q119 -10 188.5 -79.5t69.5 -190.5q0 -135 -100.5 -213t-263.5 -78h-467zM156 39h438q145 0 228 65.5t83 186.5q0 117 -82 183.5t-225 66.5h-442v-502zM156 582h442q125 0 198.5 61.5 t73.5 167.5q0 109 -71.5 164t-198.5 55h-444v-448z" />
<glyph unicode="&#x433;" horiz-adv-x="790" d="M127 0v1069h676v-39h-633v-1030h-43z" />
<glyph unicode="&#x434;" horiz-adv-x="1083" d="M4 39h121q104 203 137 454.5t33 575.5h625v-1030h141v-410h-41v371h-975v-371h-41v410zM172 39h705v991h-543q0 -193 -7.5 -329t-46 -327.5t-108.5 -334.5z" />
<glyph unicode="&#x435;" d="M57 522q0 254 131 412t347 158q217 0 336.5 -156t119.5 -365v-41h-891q0 -219 108.5 -373.5t323.5 -154.5q168 0 279 108.5t127 262.5h43q-25 -180 -143.5 -294t-305.5 -114q-215 0 -345 152.5t-130 404.5zM100 569h850q0 197 -107.5 340.5t-307.5 143.5 q-195 0 -312 -141.5t-123 -342.5z" />
<glyph unicode="&#x436;" horiz-adv-x="1423" d="M-27 0l488 612l-438 457h59l610 -637v637h41v-637l610 637h58l-438 -457l489 -612h-55l-465 584l-199 -205v-379h-41v379l-198 205l-467 -584h-54z" />
<glyph unicode="&#x437;" horiz-adv-x="966" d="M59 350v4h41v-6q0 -162 95.5 -251t267.5 -89q162 0 270.5 85t108.5 218q0 106 -79 169t-216 63h-154v43h154q127 0 200.5 59.5t73.5 167.5q0 117 -92 180.5t-246 63.5q-166 0 -249.5 -69.5t-100.5 -215.5h-41q16 162 109.5 245t281.5 83q172 0 275.5 -76t103.5 -211 q0 -98 -53 -164.5t-164 -81.5v-4q100 -4 169 -75.5t69 -176.5q0 -152 -117 -248t-303 -96q-190 0 -297 102.5t-107 280.5z" />
<glyph unicode="&#x438;" d="M115 0v1069h41v-1032h6l702 1032h66v-1069h-41v1032h-6l-703 -1032h-65z" />
<glyph unicode="&#x439;" d="M115 0v1069h41v-1032h6l702 1032h66v-1069h-41v1032h-6l-703 -1032h-65zM268 1487h41q35 -180 213 -180q188 0 217 180h41q-37 -223 -260 -223q-211 0 -252 223z" />
<glyph unicode="&#x43a;" horiz-adv-x="925" d="M109 0v1069h41v-637l720 637h62l-488 -430l512 -639h-55l-487 610l-264 -231v-379h-41z" />
<glyph unicode="&#x43b;" horiz-adv-x="1083" d="M-2 8v51q51 -31 117 -30q88 0 138 88t62 205q27 279 31 596l2 151h619v-1069h-41v1030h-535l-2 -112q-8 -365 -33 -596q-12 -135 -72.5 -234.5t-166.5 -99.5q-76 0 -119 20z" />
<glyph unicode="&#x43c;" horiz-adv-x="1275" d="M113 0v1069h65l459 -1026l461 1026h63v-1069h-41v1020h-4l-454 -1020h-50l-452 1020h-6v-1020h-41z" />
<glyph unicode="&#x43d;" d="M115 0v1069h41v-491h733v491h41v-1069h-41v537h-733v-537h-41z" />
<glyph unicode="&#x43e;" horiz-adv-x="1083" d="M59 524q0 256 133.5 416t350.5 160q211 0 347 -159t136 -404q0 -248 -135 -405t-350 -157q-209 0 -345.5 155.5t-136.5 393.5zM100 547q0 -238 122 -384.5t321 -146.5q195 0 317.5 145.5t122.5 375.5q0 227 -124 373.5t-316 146.5q-190 0 -316.5 -145.5t-126.5 -364.5z " />
<glyph unicode="&#x43f;" d="M115 0v1069h815v-1069h-41v1030h-733v-1030h-41z" />
<glyph unicode="&#x440;" horiz-adv-x="1120" d="M127 -373v1442h41v-299q109 332 420 332q211 0 337 -154.5t126 -417.5q0 -254 -127 -409.5t-338 -155.5q-164 0 -271.5 86t-146.5 238l2 -121v-541h-43zM168 524q0 -219 104.5 -370.5t315.5 -151.5q190 0 306 143.5t116 386.5q0 246 -114 387.5t-308 141.5 q-201 0 -310.5 -140.5t-109.5 -396.5z" />
<glyph unicode="&#x441;" d="M72 530q0 256 132 410t351 154q176 0 287.5 -93.5t132.5 -257.5h-41q-16 139 -117.5 226.5t-259.5 87.5q-203 0 -323.5 -143.5t-120.5 -385.5q0 -236 118.5 -381t311.5 -145q166 0 272.5 97.5t126.5 265.5h43q-25 -184 -140.5 -291t-297.5 -107q-213 0 -344 155.5 t-131 407.5z" />
<glyph unicode="&#x442;" horiz-adv-x="849" d="M-14 1030v39h880v-39h-420v-1030h-40v1030h-420z" />
<glyph unicode="&#x443;" horiz-adv-x="849" d="M-35 1069h45l426 -1012l387 1012h41l-473 -1245q-43 -111 -98 -150t-176 -39h-31v39q12 -2 25 -2q90 0 142 23.5t81 101.5q39 86 80 213z" />
<glyph unicode="&#x444;" horiz-adv-x="1591" d="M59 535q0 276 118 420.5t319 144.5q88 0 162.5 -41t111.5 -111h4v539h43v-539h4q37 70 113 111t164 41q199 0 317.5 -144.5t118.5 -420.5q0 -264 -121 -412t-313 -148q-86 0 -164 43t-115 107h-4v-498h-43v498q0 -2 -4 0q-37 -63 -113.5 -106.5t-162.5 -43.5 q-195 0 -315 148t-120 412zM100 535q0 -250 109.5 -384.5t284.5 -134.5q121 0 200.5 75t79.5 198v504q0 117 -81 190.5t-197 73.5q-178 0 -287 -132t-109 -390zM817 289q0 -123 80 -198t203 -75q172 0 281.5 134.5t109.5 384.5q0 258 -108.5 390t-284.5 132q-119 0 -200 -74 t-81 -190v-504z" />
<glyph unicode="&#x445;" horiz-adv-x="849" d="M-31 0l430 555l-397 514h57l367 -481l371 481h49l-393 -514l430 -555h-54l-405 524l-406 -524h-49z" />
<glyph unicode="&#x446;" horiz-adv-x="1083" d="M109 0v1069h41v-1030h731v1030h43v-1030h153v-410h-41v371h-927z" />
<glyph unicode="&#x447;" horiz-adv-x="966" d="M76 795v274h41v-268q0 -156 79.5 -236t219.5 -80q195 0 395 95v489h41v-1069h-41v532q-203 -90 -395 -90q-340 1 -340 353z" />
<glyph unicode="&#x448;" horiz-adv-x="1583" d="M115 0v1069h41v-1030h614v1030h43v-1030h614v1030h41v-1069h-1353z" />
<glyph unicode="&#x449;" horiz-adv-x="1624" d="M106 0v1069h41v-1030h615v1030h43v-1030h614v1030h41v-1030h154v-410h-41v371h-1467z" />
<glyph unicode="&#x44a;" horiz-adv-x="1275" d="M-20 1030v39h485v-469h457q156 0 240.5 -79t84.5 -216t-92 -221t-248 -84h-483v1030h-444zM465 39h442q141 0 220 73.5t79 192.5t-73.5 186.5t-210.5 67.5h-457v-520z" />
<glyph unicode="&#x44b;" horiz-adv-x="1275" d="M115 0v1069h41v-469h411q158 0 243 -79t85 -216t-92 -221t-250 -84h-438zM156 39h397q143 0 221 73.5t78 192.5t-72.5 186.5t-212.5 67.5h-411v-520zM1120 0v1069h41v-1069h-41z" />
<glyph unicode="&#x44c;" horiz-adv-x="966" d="M115 0v1069h41v-469h456q156 0 241 -79t85 -216t-92 -221t-248 -84h-483zM156 39h442q141 0 220 73.5t79 192.5t-73.5 186.5t-211.5 67.5h-456v-520z" />
<glyph unicode="&#x44d;" d="M70 348h43q25 -160 130 -253t267 -93q193 0 311.5 145.5t118.5 380.5v7h-586v43h584q-12 221 -131 350t-311 129q-152 0 -251.5 -79t-121.5 -212h-41q25 154 135.5 241t280.5 87q219 0 351 -154t132 -410q0 -252 -131 -407.5t-344 -155.5q-176 0 -291.5 101.5 t-144.5 279.5z" />
<glyph unicode="&#x44e;" horiz-adv-x="1456" d="M115 0v1069h41v-491h280q14 236 146.5 379t337.5 143q211 0 346 -159t135 -404q0 -248 -134 -405t-349 -157q-209 0 -346.5 156t-137.5 393v13h-278v-537h-41zM477 547q0 -238 122 -384.5t321 -146.5q195 0 317.5 145.5t122.5 375.5q0 227 -124 373.5t-316 146.5 q-190 0 -316.5 -145.5t-126.5 -364.5z" />
<glyph unicode="&#x44f;" horiz-adv-x="1003" d="M-2 0l393 494q-141 6 -226 82.5t-85 216.5q0 135 91 205.5t249 70.5h461v-1069h-41v494h-396l-389 -494h-57zM121 793q0 -127 80 -194t211 -67h428v498h-420q-145 0 -222 -60t-77 -177z" />
<glyph unicode="&#x450;" d="M221 1515h57l283 -293h-51zM57 522q0 254 131 412t347 158q217 0 336.5 -156t119.5 -365v-41h-891q0 -219 108.5 -373.5t323.5 -154.5q168 0 279 108.5t127 262.5h43q-25 -180 -143.5 -294t-305.5 -114q-215 0 -345 152.5t-130 404.5zM100 569h850q0 197 -107.5 340.5 t-307.5 143.5q-195 0 -312 -141.5t-123 -342.5z" />
<glyph unicode="&#x451;" d="M57 522q0 254 131 412t347 158q217 0 336.5 -156t119.5 -365v-41h-891q0 -219 108.5 -373.5t323.5 -154.5q168 0 279 108.5t127 262.5h43q-25 -180 -143.5 -294t-305.5 -114q-215 0 -345 152.5t-130 404.5zM100 569h850q0 197 -107.5 340.5t-307.5 143.5 q-195 0 -312 -141.5t-123 -342.5zM324 1274v213h45v-213h-45zM672 1274v213h45v-213h-45z" />
<glyph unicode="&#x452;" d="M-10 1030v39h125v418h41v-418h567v-39h-567v-514h6q29 125 132 208t253 83q176 0 279.5 -104.5t103.5 -282.5v-205q0 -248 -121 -410.5t-354 -175.5v43q199 10 316.5 153.5t117.5 387.5v201q0 164 -90 257t-250 93q-174 0 -283.5 -124t-109.5 -325v-315h-41v1030h-125z " />
<glyph unicode="&#x453;" horiz-adv-x="790" d="M127 0v1065h670v-39h-627v-1026h-43zM299 1249l279 293h55l-287 -293h-47z" />
<glyph unicode="&#x454;" d="M70 530q0 256 132 410t351 154q170 0 280.5 -87t137.5 -241h-41q-23 133 -123 212t-252 79q-193 0 -311.5 -129t-130.5 -350h583v-43h-585v-7q0 -236 118.5 -381t311.5 -145q164 0 269 93t128 253h43q-29 -178 -143.5 -279.5t-292.5 -101.5q-213 0 -344 155.5t-131 407.5 z" />
<glyph unicode="&#x455;" horiz-adv-x="966" d="M68 365h43q0 -354 378 -355q156 0 255.5 73t99.5 189q0 80 -61.5 136.5t-110.5 73t-154 40.5q-14 4 -22 6q-4 0 -49.5 10.5t-54.5 13.5t-50 15.5t-53.5 18.5t-46 20.5t-46 26.5t-35 32.5t-31.5 41t-16.5 48t-7.5 60.5q0 131 98.5 205t272.5 74q178 0 279.5 -87 t101.5 -253h-43q0 301 -350 301q-145 0 -230 -63.5t-85 -172.5q0 -31 7 -57.5t23.5 -47t29.5 -36.5t42 -31l45 -22q16 -8 53 -18.5t51.5 -13.5t55.5 -13l49 -13q193 -45 258 -84q121 -74 121 -211t-110.5 -221t-287.5 -84q-203 0 -311 104t-108 294z" />
<glyph unicode="&#x456;" horiz-adv-x="270" d="M113 0v1069h43v-1069h-43zM113 1274v213h43v-213h-43z" />
<glyph unicode="&#x457;" horiz-adv-x="270" d="M-61 1274v213h45v-213h-45zM113 0v1069h43v-1069h-43zM289 1274v213h43v-213h-43z" />
<glyph unicode="&#x458;" horiz-adv-x="270" d="M-104 -334h16q111 0 159 32t48 140v1231h45v-1221q0 -129 -52.5 -175t-181.5 -46h-34v39zM119 1274v213h45v-213h-45z" />
<glyph unicode="&#x459;" horiz-adv-x="1593" d="M-2 8v51q51 -31 117 -30q88 0 138 88t62 205q27 279 31 596l2 151h555v-469h336q156 0 241 -79t85 -216t-92.5 -221t-247.5 -84h-365v1030h-469l-2 -112q-8 -365 -33 -596q-12 -135 -72.5 -234.5t-166.5 -99.5q-76 0 -119 20zM903 39h322q141 0 220 73.5t79 192.5 t-74 186.5t-211 67.5h-336v-520z" />
<glyph unicode="&#x45a;" horiz-adv-x="1550" d="M115 0v1069h41v-475h626v475h43v-475h371q158 0 243 -76t85 -213t-92.5 -221t-249.5 -84h-400v553h-626v-553h-41zM825 39h357q143 0 221 73.5t78 192.5t-72 183.5t-213 64.5h-371v-514z" />
<glyph unicode="&#x45b;" d="M-10 1030v39h125v420h41v-420h567v-39h-567v-514h6q33 129 133 210t252 81q176 0 279.5 -104.5t103.5 -282.5v-420h-41v414q0 164 -90 257t-250 93q-174 0 -283.5 -124t-109.5 -325v-315h-41v1030h-125z" />
<glyph unicode="&#x45c;" horiz-adv-x="925" d="M115 0v1069h41v-637l721 637h61l-487 -430l512 -639h-56l-487 610l-264 -231v-379h-41zM360 1249l279 293h57l-286 -293h-50z" />
<glyph unicode="&#x45d;" d="M209 1515h57l283 -293h-51zM115 0v1069h41v-1032h6l702 1032h66v-1069h-41v1032h-6l-703 -1032h-65z" />
<glyph unicode="&#x45e;" horiz-adv-x="849" d="M-35 1069h45l426 -1012l387 1012h41l-473 -1245q-43 -111 -98 -150t-176 -39h-31v39q12 -2 25 -2q90 0 142 23.5t81 101.5q39 86 80 213zM180 1487h41q35 -180 213 -180q188 0 217 180h43q-39 -223 -262 -223q-211 0 -252 223z" />
<glyph unicode="&#x45f;" d="M115 0v1069h41v-1030h733v1030h41v-1069h-389v-371h-41v371h-385z" />
<glyph unicode="&#x490;" horiz-adv-x="966" d="M113 0v1487h833v340h41v-379h-833v-1448h-41z" />
<glyph unicode="&#x491;" horiz-adv-x="790" d="M113 0v1069h657v332h43v-371h-659v-1030h-41z" />
<glyph unicode="&#x4ae;" horiz-adv-x="1122" d="M-68 1487h52l575 -821l584 821h47l-608 -860v-627h-43v627z" />
<glyph unicode="&#x4c0;" horiz-adv-x="266" d="M113 0v1487h41v-1487h-41z" />
<glyph unicode="&#x2000;" horiz-adv-x="970" />
<glyph unicode="&#x2001;" horiz-adv-x="1943" />
<glyph unicode="&#x2002;" horiz-adv-x="970" />
<glyph unicode="&#x2003;" horiz-adv-x="1943" />
<glyph unicode="&#x2004;" horiz-adv-x="647" />
<glyph unicode="&#x2005;" horiz-adv-x="485" />
<glyph unicode="&#x2006;" horiz-adv-x="323" />
<glyph unicode="&#x2007;" horiz-adv-x="323" />
<glyph unicode="&#x2008;" horiz-adv-x="241" />
<glyph unicode="&#x2009;" horiz-adv-x="387" />
<glyph unicode="&#x200a;" horiz-adv-x="106" />
<glyph unicode="&#x2010;" horiz-adv-x="694" d="M162 541v37h373v-37h-373z" />
<glyph unicode="&#x2011;" horiz-adv-x="694" d="M162 541v37h373v-37h-373z" />
<glyph unicode="&#x2012;" horiz-adv-x="694" d="M162 541v37h373v-37h-373z" />
<glyph unicode="&#x2013;" d="M0 543v39h1044v-39h-1044z" />
<glyph unicode="&#x2014;" horiz-adv-x="2088" d="M0 543v39h2089v-39h-2089z" />
<glyph unicode="&#x2018;" horiz-adv-x="348" d="M160 1053v190q0 109 19.5 167t70.5 99v-57q-49 -51 -49 -178v-221h-41z" />
<glyph unicode="&#x2019;" horiz-adv-x="348" d="M102 1030v57q49 51 50 179v221h43v-191q0 -109 -21 -167t-72 -99z" />
<glyph unicode="&#x201a;" horiz-adv-x="348" d="M102 -195q49 51 50 179v221h43v-191q0 -109 -20.5 -167t-72.5 -99v57z" />
<glyph unicode="&#x201c;" horiz-adv-x="579" d="M166 1055v190q0 109 19.5 167t70.5 99v-57q-49 -51 -49 -178v-221h-41zM373 1055v190q0 109 19.5 167t70.5 99v-57q-49 -51 -49 -178v-221h-41z" />
<glyph unicode="&#x201d;" horiz-adv-x="579" d="M111 1030v57q51 51 51 179v221h41v-191q0 -109 -19.5 -167t-72.5 -99zM319 1030v57q51 51 52 179v221h41v-191q0 -109 -20 -167t-73 -99z" />
<glyph unicode="&#x201e;" horiz-adv-x="579" d="M111 -197q51 51 51 179v221h41v-191q0 -109 -19.5 -167t-72.5 -99v57zM319 -197q51 51 52 179v221h41v-191q0 -109 -19.5 -167t-73.5 -99v57z" />
<glyph unicode="&#x2026;" horiz-adv-x="2088" d="M328 0v205h47v-205h-47zM1022 0v205h45v-205h-45zM1714 0v205h47v-205h-47z" />
<glyph unicode="&#x202f;" horiz-adv-x="387" />
<glyph unicode="&#x2039;" horiz-adv-x="540" d="M154 543v41l204 284v-67l-165 -242l165 -225v-66z" />
<glyph unicode="&#x203a;" horiz-adv-x="540" d="M186 266v66l168 241l-168 230v65l205 -276v-43z" />
<glyph unicode="&#x205f;" horiz-adv-x="485" />
<glyph unicode="&#x2122;" horiz-adv-x="2066" d="M252 1448v39h592v-39h-277v-705h-39v705h-276zM1008 743v744h59l279 -696l278 696h59v-744h-36v695l-281 -695h-41l-281 695v-695h-36z" />
<glyph unicode="&#xe000;" horiz-adv-x="1070" d="M0 1070h1070v-1070h-1070v1070z" />
</font>
</defs>
</svg>
